<?xml version="1.0" encoding="iso-8859-1"?>
<!-- Generator: Adobe Illustrator 22.0.0, SVG Export Plug-In . SVG Version: 6.00 Build 0)  -->
<svg version="1.1" id="Layer_1" xmlns="http://www.w3.org/2000/svg" xmlns:xlink="http://www.w3.org/1999/xlink" x="0px" y="0px"
	 viewBox="0 0 32 32" style="enable-background:new 0 0 32 32;" xml:space="preserve">
<g id="Iconly_Light-Outline_Heart" transform="translate(789 3004)">
	<g id="Heart" transform="translate(0 0)">
		<path id="Combined-Shape-2" d="M-773.004-3000.789c2.481-1.527,5.5-1.909,8.283-1.046c5.949,1.918,7.795,8.403,6.143,13.563
			c-2.549,8.104-13.433,14.15-13.895,14.403c-0.328,0.18-0.726,0.18-1.054,0c-0.459-0.248-11.264-6.204-13.892-14.402l0,0
			c-1.66-5.163,0.18-11.649,6.123-13.565C-778.512-3002.732-775.476-3002.349-773.004-3000.789z M-780.624-2999.742
			c-4.804,1.551-6.012,6.722-4.706,10.801c2.052,6.393,10.172,11.562,12.329,12.841c2.165-1.293,10.341-6.519,12.329-12.835
			c1.306-4.083,0.094-9.255-4.722-10.807c-2.364-0.744-4.941-0.312-6.933,1.161c-0.392,0.303-0.938,0.307-1.334,0.009
			c-1.992-1.497-4.588-1.933-6.96-1.169H-780.624z M-766.805-2996.832c1.993,0.64,3.402,2.42,3.569,4.506
			c0.049,0.605-0.402,1.135-1.007,1.184c-0.031,0-0.06,0-0.091,0c-0.572,0-1.048-0.439-1.095-1.01
			c-0.094-1.2-0.905-2.225-2.052-2.593c-0.578-0.186-0.895-0.805-0.709-1.383s0.806-0.896,1.383-0.709l0,0L-766.805-2996.832z"/>
	</g>
</g>
</svg>
